<svg width="8" height="8" viewBox="0 0 8 8" fill="none" xmlns="http://www.w3.org/2000/svg">
<path d="M7.82639 3.62546C7.98385 3.46528 8.03944 3.2302 7.97152 3.01166C7.90344 2.79313 7.72611 2.63713 7.50825 2.60402L5.57123 2.31025C5.48873 2.29771 5.41744 2.2437 5.3806 2.16561L4.51461 0.333737C4.41738 0.12791 4.22002 0 4.00008 0C3.7803 0 3.58294 0.12791 3.48571 0.333737L2.61956 2.16578C2.58272 2.24387 2.51127 2.29787 2.42877 2.31041L0.491751 2.60419C0.274052 2.63713 0.0965615 2.79329 0.0284806 3.01183C-0.0394401 3.23036 0.016146 3.46545 0.173613 3.62563L1.57512 5.05154C1.63487 5.1124 1.66226 5.20002 1.64817 5.28562L1.31753 7.29908C1.28822 7.47632 1.33275 7.64871 1.44264 7.78464C1.6134 7.99649 1.91152 8.06103 2.14988 7.93028L3.88218 6.97956C3.95459 6.93993 4.04573 6.94027 4.11798 6.97956L5.85044 7.93028C5.9347 7.97659 6.02457 8 6.11732 8C6.28664 8 6.44715 7.92141 6.55752 7.78464C6.66757 7.64871 6.71194 7.47599 6.68263 7.29908L6.35183 5.28562C6.33774 5.19985 6.36513 5.1124 6.42488 5.05154L7.82639 3.62546Z" fill="white"/>
</svg>
